# Blender v2.92.0 OBJ File: ''
# www.blender.org
mtllib sticks.mtl
o Cube
v 0.152494 2.101783 -0.152494
v 0.152494 -0.152494 -0.152494
v 0.152494 2.101783 0.152494
v 0.152494 -0.152494 0.152494
v -0.152494 2.101783 -0.152494
v -0.152494 -0.152494 -0.152494
v -0.152494 2.101783 0.152494
v -0.152494 -0.152494 0.152494
vt 0.752505 0.423862
vt 0.855211 0.417847
vt 0.855211 0.604773
vt 0.750187 0.604773
vt -0.002331 0.242374
vt 1.006904 0.242374
vt 1.006904 0.492374
vt -0.002331 0.492374
vt -0.002789 0.000752
vt 0.996459 0.000752
vt 1.008851 0.258796
vt 0.009603 0.258796
vt 0.720015 0.383169
vt 0.868867 0.386270
vt 0.865766 0.628226
vt 0.720015 0.633169
vt 0.001834 0.459276
vt 1.005348 0.459276
vt 1.005348 0.709276
vt 0.001835 0.709276
vt -0.005391 0.659705
vt 0.997387 0.663084
vt 0.996132 0.887020
vt -0.005275 0.891042
vn 0.0000 1.0000 0.0000
vn 0.0000 0.0000 1.0000
vn -1.0000 0.0000 0.0000
vn 0.0000 -1.0000 0.0000
vn 1.0000 0.0000 0.0000
vn 0.0000 0.0000 -1.0000
usemtl Material
s off
f 1/1/1 5/2/1 7/3/1 3/4/1
f 4/5/2 3/6/2 7/7/2 8/8/2
f 8/9/3 7/10/3 5/11/3 6/12/3
f 6/13/4 2/14/4 4/15/4 8/16/4
f 2/17/5 1/18/5 3/19/5 4/20/5
f 6/21/6 5/22/6 1/23/6 2/24/6
