# Blender v2.92.0 OBJ File: ''
# www.blender.org
mtllib diamond.mtl
o Cube_Cube.001
v -0.004870 -0.317052 0.004870
v -0.159058 0.001064 0.159058
v -0.004870 -0.317052 -0.004870
v -0.159058 0.001064 -0.159058
v 0.004870 -0.317052 0.004870
v 0.159058 0.001064 0.159058
v 0.004870 -0.317052 -0.004870
v 0.159058 0.001064 -0.159058
v -0.003953 0.301200 0.003953
v -0.003953 0.301200 -0.003953
v 0.003953 0.301200 -0.003953
v 0.003953 0.301200 0.003953
vt 0.000095 0.436171
vt 0.999905 0.000095
vt 0.999905 0.899794
vt 0.000095 0.463718
vt 0.000095 0.436171
vt 0.999905 0.000095
vt 0.999905 0.899794
vt 0.000095 0.463718
vt 0.000095 0.436171
vt 0.999905 0.000095
vt 0.999905 0.899794
vt 0.000095 0.463718
vt 0.000095 0.436171
vt 0.999905 0.000095
vt 0.999905 0.899794
vt 0.000095 0.463718
vt 0.125000 0.500000
vt 0.375000 0.500000
vt 0.375000 0.750000
vt 0.125000 0.750000
vt 0.000097 0.941521
vt 0.000097 0.000097
vt 0.999903 0.459107
vt 0.999903 0.482508
vt 0.625000 0.500000
vt 0.875000 0.500000
vt 0.875000 0.750000
vt 0.625000 0.750000
vt 0.999903 0.941521
vt 0.000097 0.482511
vt 0.000097 0.459110
vt 0.000097 0.941521
vt 0.000097 0.000097
vt 0.999903 0.459107
vt 0.999903 0.482508
vt 0.999903 0.941521
vt 0.000097 0.482511
vt 0.000097 0.459110
vn -0.8999 -0.4362 0.0000
vn 0.0000 -0.4362 -0.8999
vn 0.8999 -0.4362 0.0000
vn 0.0000 -0.4362 0.8999
vn 0.0000 -1.0000 0.0000
vn 0.0000 0.4591 -0.8884
vn 0.0000 1.0000 0.0000
vn 0.8884 0.4591 0.0000
vn -0.8884 0.4591 0.0000
vn 0.0000 0.4591 0.8884
usemtl diamond
s off
f 1/1/1 2/2/1 4/3/1 3/4/1
f 3/5/2 4/6/2 8/7/2 7/8/2
f 7/9/3 8/10/3 6/11/3 5/12/3
f 5/13/4 6/14/4 2/15/4 1/16/4
f 3/17/5 7/18/5 5/19/5 1/20/5
f 8/21/6 4/22/6 10/23/6 11/24/6
f 11/25/7 10/26/7 9/27/7 12/28/7
f 6/14/8 8/29/8 11/30/8 12/31/8
f 4/32/9 2/33/9 9/34/9 10/35/9
f 2/2/10 6/36/10 12/37/10 9/38/10
