# Blender v2.92.0 OBJ File: 'fence_pole.blend'
# www.blender.org
mtllib fence_pole.mtl
o Cube_Cube.002
v -0.132275 -0.198265 0.132275
v -0.132275 3.465959 0.132275
v -0.132275 -0.198265 -0.132275
v -0.132275 3.465959 -0.132275
v 0.132275 -0.198265 0.132275
v 0.132275 3.465959 0.132275
v 0.132275 -0.198265 -0.132275
v 0.132275 3.465959 -0.132275
vt 0.726102 0.993833
vt 0.726850 0.136600
vt 0.946501 0.133977
vt 0.947856 0.992369
vt 0.039638 1.001026
vt 0.039638 0.138794
vt 0.262565 0.138794
vt 0.265665 0.996977
vt 0.267673 0.999471
vt 0.266455 0.142905
vt 0.489526 0.140349
vt 0.489194 0.992865
vt 0.495698 0.995907
vt 0.496716 0.139853
vt 0.718047 0.135814
vt 0.718579 0.993893
vt 0.977626 0.507869
vt 0.977626 0.769409
vt 0.789512 0.769409
vt 0.789512 0.507869
vt 0.514137 0.200665
vt 0.514137 0.614971
vt 0.191906 0.614971
vt 0.191906 0.200665
vn -1.0000 0.0000 0.0000
vn 0.0000 0.0000 -1.0000
vn 1.0000 0.0000 0.0000
vn 0.0000 0.0000 1.0000
vn 0.0000 -1.0000 0.0000
vn 0.0000 1.0000 0.0000
usemtl rust.001
s off
f 1/1/1 2/2/1 4/3/1 3/4/1
f 3/5/2 4/6/2 8/7/2 7/8/2
f 7/9/3 8/10/3 6/11/3 5/12/3
f 5/13/4 6/14/4 2/15/4 1/16/4
f 3/17/5 7/18/5 5/19/5 1/20/5
f 8/21/6 4/22/6 2/23/6 6/24/6
