# Blender v2.92.0 OBJ File: 'sanbox.blend'
# www.blender.org
mtllib sandbox.mtl
o model_Cube.005
v -4.412308 -0.295405 4.412308
v -4.412308 0.295405 4.412308
v -4.412308 -0.295405 -4.412308
v -4.412308 0.295405 -4.412308
v 4.412308 -0.295405 4.412308
v 4.412308 0.295405 4.412308
v 4.412308 -0.295405 -4.412308
v 4.412308 0.295405 -4.412308
v -3.748682 0.295405 3.748682
v -3.748682 0.295405 -3.748682
v 3.748682 0.295405 -3.748682
v 3.748682 0.295405 3.748682
v -3.748682 -0.216498 3.748682
v -3.748682 -0.216498 -3.748682
v 3.748682 -0.216498 -3.748682
v 3.748682 -0.216498 3.748682
vt 0.123231 1.635747
vt 0.154384 0.868693
vt -0.009614 0.172430
vt 0.000524 0.186003
vt 0.077689 0.004964
vt -0.040746 -0.169188
vt -0.026827 0.419018
vt 0.068375 -0.635747
vt 0.053262 0.180549
vt 0.023822 0.403149
vt 0.026590 0.276466
vt 0.092708 0.591061
vt -0.059964 0.638999
vt 0.030524 0.099695
vt 0.074329 0.515251
vt 0.154384 0.203646
vt -0.086613 -0.093495
vt 1.084613 -0.093495
vt 1.084613 1.077731
vt -0.086613 1.077731
vn -1.0000 0.0000 0.0000
vn 0.0000 0.0000 -1.0000
vn 1.0000 0.0000 0.0000
vn 0.0000 0.0000 1.0000
vn 0.0000 -1.0000 0.0000
vn 0.0000 1.0000 0.0000
usemtl wood.002
s off
f 1/1/1 2/2/1 4/3/1 3/4/1
f 3/4/2 4/3/2 8/5/2 7/6/2
f 7/6/3 8/5/3 6/7/3 5/8/3
f 5/8/4 6/7/4 2/2/4 1/1/4
f 3/4/5 7/6/5 5/8/5 1/1/5
f 6/7/6 8/5/6 11/9/6 12/10/6
f 10/11/3 9/12/3 13/13/3 14/14/3
f 4/3/6 2/2/6 9/12/6 10/11/6
f 2/2/6 6/7/6 12/10/6 9/12/6
f 8/5/6 4/3/6 10/11/6 11/9/6
f 9/12/2 12/10/2 16/15/2 13/13/2
f 11/9/4 10/11/4 14/14/4 15/16/4
f 12/10/1 11/9/1 15/16/1 16/15/1
usemtl sand
f 15/17/6 14/18/6 13/19/6 16/20/6
