# Blender v2.92.0 OBJ File: 'flat.blend'
# www.blender.org
mtllib flat.mtl
o Cube_Cube.001
v -8.789280 -0.154514 4.560278
v -8.789280 23.867113 4.560278
v -8.789280 -0.154514 -4.560278
v -8.789280 23.867113 -4.560278
v 8.789280 -0.154514 4.560278
v 8.789280 23.867113 4.560278
v 8.789280 -0.154514 -4.560278
v 8.789280 23.867113 -4.560278
v 0.000000 -0.154514 -4.560278
v 0.000000 23.867113 -4.560278
v 0.000000 -0.154514 4.560278
v 0.000000 23.867113 4.560278
v -8.789280 -0.154514 0.000000
v -8.789280 23.867113 0.000000
v 8.789280 -0.154514 0.000000
v 8.789280 23.867113 0.000000
v 0.000000 -0.154514 0.000000
v 4.394640 23.867113 -4.560278
v 4.394640 -0.154514 4.560278
v 4.394640 -0.154514 -4.560278
v 4.394640 23.867113 4.560278
v 4.394640 -0.154514 0.000000
v -4.394640 -0.154514 -4.560278
v -4.394640 23.867113 4.560278
v -4.394640 23.867113 -4.560278
v -4.394640 -0.154514 4.560278
v -4.394640 -0.154514 0.000000
v -8.789280 23.867113 -2.280139
v 8.789280 -0.154514 -2.280139
v -8.789280 -0.154514 -2.280139
v 8.789280 23.867113 -2.280139
v 0.000000 23.867113 -2.280139
v 0.000000 -0.154514 -2.280139
v 4.394640 -0.154514 -2.280139
v 4.394640 23.867113 -2.280139
v -4.394640 23.867113 -2.280139
v -4.394640 -0.154514 -2.280139
v -8.789280 -0.154514 2.280139
v 8.789280 23.867113 2.280139
v 0.000000 23.867113 2.280139
v 0.000000 -0.154514 2.280139
v -8.789280 23.867113 2.280139
v 8.789280 -0.154514 2.280139
v 4.394640 23.867113 2.280139
v 4.394640 -0.154514 2.280139
v -4.394640 -0.154514 2.280139
v -4.394640 23.867113 2.280139
v -6.591960 -0.154514 -4.560278
v -6.591960 23.867113 4.560278
v -6.591960 -0.154514 0.000000
v -6.591960 23.867113 -4.560278
v -6.591960 -0.154514 4.560278
v -6.591960 23.867113 0.000000
v -6.591960 -0.154514 -2.280139
v -6.591960 23.867113 -2.280139
v -6.591960 -0.154514 2.280139
v -6.591960 23.867113 2.280139
v 6.591960 23.867113 -4.560278
v 6.591960 -0.154514 4.560278
v 6.591960 23.867113 0.000000
v 6.591960 -0.154514 -4.560278
v 6.591960 23.867113 4.560278
v 6.591960 -0.154514 0.000000
v 6.591960 23.867113 -2.280139
v 6.591960 -0.154514 -2.280139
v 6.591960 23.867113 2.280139
v 6.591960 -0.154514 2.280139
v 0.000000 26.310516 -2.280139
v 0.000000 26.310516 0.000000
v -4.394640 26.310516 0.000000
v 4.394640 26.310516 0.000000
v 4.394640 26.310516 -2.280139
v -6.591960 26.310516 0.000000
v -4.394640 26.310516 -2.280139
v -6.591960 26.310516 -2.280139
v 0.000000 26.310516 2.280139
v 4.394640 26.310516 2.280139
v -4.394640 26.310516 2.280139
v -6.591960 26.310516 2.280139
v 6.591960 26.310516 0.000000
v 6.591960 26.310516 -2.280139
v 6.591960 26.310516 2.280139
v -8.789280 3.754642 4.560278
v -8.789280 3.754642 -4.560278
v 8.789280 3.754642 -4.560278
v 8.789280 3.754642 4.560278
v 0.000000 3.754642 4.560278
v 0.000000 3.754642 -4.560278
v 8.789280 3.754642 0.000000
v -8.789280 3.754642 0.000000
v 4.394640 3.754642 4.560278
v 4.394640 3.754642 -4.560278
v -4.394640 3.754642 -4.560278
v -4.394640 3.754642 4.560278
v 8.789280 3.754642 -2.280139
v -8.789280 3.754642 -2.280139
v -8.789280 3.754642 2.280139
v 8.789280 3.754642 2.280139
v -6.591960 3.754642 -4.560278
v -6.591960 3.754642 4.560278
v 6.591960 3.754642 4.560278
v 6.591960 3.754642 -4.560278
v 7.715538 23.867113 -4.560278
v 7.715538 -0.154514 4.560278
v 7.715538 23.867113 0.000000
v 7.715538 23.867113 -2.280139
v 7.715538 23.867113 2.280139
v 7.715538 -0.154514 -4.560278
v 7.715538 23.867113 4.560278
v 7.715538 -0.154514 0.000000
v 7.715538 -0.154514 -2.280139
v 7.715538 -0.154514 2.280139
v 7.715538 3.754642 4.560278
v 7.715538 3.754642 -4.560278
v -8.325691 -0.154514 -4.560278
v -8.325691 23.867113 4.560278
v -8.325691 -0.154514 0.000000
v -8.325691 -0.154514 -2.280139
v -8.325691 -0.154514 2.280139
v -8.325691 23.867113 -4.560278
v -8.325691 -0.154514 4.560278
v -8.325691 23.867113 0.000000
v -8.325691 23.867113 -2.280139
v -8.325691 23.867113 2.280139
v -8.325691 3.754642 -4.560278
v -8.325691 3.754642 4.560278
v -8.789280 22.120735 4.560278
v -8.789280 22.120735 -4.560278
v 8.789280 22.120735 -4.560278
v 8.789280 22.120735 4.560278
v 0.000000 22.120735 4.560278
v 0.000000 22.120735 -4.560278
v 8.789280 22.120735 0.000000
v -8.789280 22.120735 0.000000
v 4.394640 22.120735 4.560278
v 4.394640 22.120735 -4.560278
v -4.394640 22.120735 -4.560278
v -4.394640 22.120735 4.560278
v 8.789280 22.120735 -2.280139
v -8.789280 22.120735 -2.280139
v -8.789280 22.120735 2.280139
v 8.789280 22.120735 2.280139
v -6.591960 22.120735 -4.560278
v -6.591960 22.120735 4.560278
v 6.591960 22.120735 4.560278
v 6.591960 22.120735 -4.560278
v 7.715538 22.120735 4.560278
v 7.715538 22.120735 -4.560278
v -8.325691 22.120735 -4.560278
v -8.325691 22.120735 4.560278
v -2.197320 23.867113 -4.560278
v -2.197320 -0.154514 4.560278
v -2.197320 -0.154514 -4.560278
v -2.197320 23.867113 4.560278
v -2.197320 -0.154514 0.000000
v -2.197320 23.867113 -2.280139
v -2.197320 -0.154514 -2.280139
v -2.197320 23.867113 2.280139
v -2.197320 -0.154514 2.280139
v -2.197320 26.310516 0.000000
v -2.197320 26.310516 -2.280139
v -2.197320 26.310516 2.280139
v -2.197320 3.754642 4.560278
v -2.197320 3.754642 -4.560278
v -2.197320 22.120735 4.560278
v -2.197320 22.120735 -4.560278
v 2.197320 -0.154514 -4.560278
v 2.197320 23.867113 4.560278
v 2.197320 -0.154514 0.000000
v 2.197320 23.867113 -4.560278
v 2.197320 -0.154514 4.560278
v 2.197320 -0.154514 -2.280139
v 2.197320 23.867113 -2.280139
v 2.197320 -0.154514 2.280139
v 2.197320 23.867113 2.280139
v 2.197320 26.310516 0.000000
v 2.197320 26.310516 -2.280139
v 2.197320 26.310516 2.280139
v 2.197320 3.754642 -4.560278
v 2.197320 3.754642 4.560278
v 2.197320 22.120735 -4.560278
v 2.197320 22.120735 4.560278
v -2.197320 -0.154514 4.459733
v 0.000000 -0.154514 4.459733
v 0.000000 3.754642 4.459733
v 2.197320 3.754642 4.459733
v -2.197320 3.754642 4.459733
v 2.197320 -0.154514 4.459733
vt 0.371717 0.859290
vt 0.496693 0.859290
vt 0.496693 0.859290
vt 0.371717 0.859290
vt 0.871620 0.859290
vt 0.871620 0.142649
vt 0.970229 0.142650
vt 0.970229 0.859290
vt 0.005058 0.786431
vt 0.005057 0.069790
vt 0.031425 0.069790
vt 0.031425 0.786431
vt 0.881971 0.723931
vt 0.881971 0.007290
vt 0.945877 0.007290
vt 0.945877 0.723931
vt -0.003210 0.859290
vt -0.003210 0.142649
vt 0.057860 0.142649
vt 0.057861 0.859290
vt 0.756995 0.723931
vt 0.756996 0.007290
vt 0.121766 0.142649
vt 0.121766 0.859290
vt 0.746644 0.859290
vt 0.746644 0.142649
vt 0.033508 0.723931
vt 0.033508 0.007290
vt 0.132117 0.007290
vt 0.132117 0.723931
vt 0.621669 0.859290
vt 0.621669 0.142649
vt 0.257092 0.007290
vt 0.257093 0.723931
vt 0.632020 0.723931
vt 0.632020 0.007290
vt 0.246741 0.142649
vt 0.246742 0.859290
vt 0.382068 0.723931
vt 0.382068 0.007290
vt 0.507044 0.007290
vt 0.507044 0.723931
vt 0.371717 0.142649
vt 0.496693 0.142649
vt 0.996596 0.142650
vt 0.996596 0.859290
vt 0.943793 0.786431
vt 0.943793 0.069790
vt 1.004864 0.069790
vt 1.004864 0.786431
vt 0.621669 0.859290
vt 0.497907 0.784874
vt 0.502651 0.068248
vt 0.752598 0.069702
vt 0.747854 0.786329
vt 0.001427 0.786721
vt -0.001579 0.070086
vt 0.248370 0.069165
vt 0.251377 0.785800
vt 0.501326 0.784878
vt 0.498320 0.068243
vt 0.748269 0.067322
vt 0.751276 0.783957
vt -0.001986 0.781966
vt 0.002758 0.065339
vt 0.252704 0.066794
vt 0.247961 0.783420
vt 1.002544 0.071156
vt 0.997801 0.787783
vt 0.998219 0.066400
vt 1.001225 0.783035
vt 0.140760 0.919587
vt 0.117242 0.953291
vt 0.000102 0.850407
vt 0.058762 0.853035
vt 0.159614 0.602080
vt 0.154219 0.598855
vt 0.158015 0.594109
vt 0.161378 0.598936
vt 0.323764 0.575480
vt 0.320866 0.543402
vt 0.449082 0.538691
vt 0.428786 0.564704
vt 0.453776 0.941489
vt 0.483310 0.960182
vt 0.472925 0.972944
vt 0.449450 0.951375
vt 0.938830 0.749950
vt 0.999900 0.749950
vt 0.999900 0.999900
vt 0.938830 0.999900
vt 0.901321 0.736866
vt 0.926838 0.737509
vt 0.928353 0.987478
vt 0.901984 0.987637
vt 0.355031 0.762965
vt 0.458771 0.776141
vt 0.452031 0.999903
vt 0.336017 0.987678
vt 0.375025 0.749950
vt 0.500000 0.749950
vt 0.500000 0.999899
vt 0.375025 0.999899
vt 0.466264 0.701185
vt 0.498009 0.698239
vt 0.503088 0.749504
vt 0.471038 0.750717
vt 0.137216 0.651711
vt 0.128129 0.647153
vt 0.137253 0.631780
vt 0.144381 0.634809
vt 0.375025 0.250050
vt 0.500000 0.250050
vt 0.500000 0.500000
vt 0.375025 0.500000
vt 0.251291 0.749788
vt 0.133280 0.716446
vt 0.198137 0.648296
vt 0.271908 0.674114
vt 0.901681 0.280938
vt 0.925653 0.280900
vt 0.938802 0.504299
vt 0.914793 0.504288
vt 0.938830 0.250050
vt 0.999900 0.250050
vt 0.999900 0.500000
vt 0.938830 0.500000
vt 0.190074 0.593517
vt 0.187532 0.584300
vt 0.228976 0.573339
vt 0.232148 0.587181
vt 0.363411 0.969720
vt 0.365620 0.999898
vt 0.246635 0.991005
vt 0.254132 0.958251
vt 0.624975 0.250050
vt 0.749950 0.250050
vt 0.749950 0.500000
vt 0.624975 0.500000
vt 0.802928 0.734378
vt 0.674807 0.771957
vt 0.655184 0.684791
vt 0.733617 0.673031
vt 0.450308 0.605202
vt 0.481715 0.594734
vt 0.492930 0.646973
vt 0.461490 0.651653
vt 0.220003 0.975452
vt 0.105678 0.957821
vt 0.624975 0.749950
vt 0.749950 0.749950
vt 0.749950 0.999900
vt 0.624975 0.999900
vt 0.148806 0.624989
vt 0.142303 0.622232
vt 0.147352 0.612685
vt 0.153231 0.615169
vt 0.106993 0.496539
vt 0.188258 0.496080
vt 0.125075 0.250050
vt 0.250050 0.250050
vt 0.250050 0.500000
vt 0.125076 0.500000
vt 0.102068 0.738538
vt 0.048836 0.722574
vt 0.119005 0.662526
vt 0.130051 0.668612
vt 0.125076 0.749950
vt 0.250051 0.749950
vt 0.250050 0.999899
vt 0.125076 0.999899
vt 0.566789 0.774049
vt 0.693530 0.996322
vt 0.572780 0.998113
vt 0.470225 0.802482
vt 0.503088 0.802731
vt 0.503088 0.855957
vt 0.469413 0.854247
vt 0.125075 0.000100
vt 0.250050 0.000100
vt 0.607500 0.012916
vt 0.723796 0.025735
vt 0.690166 0.251559
vt 0.586714 0.237874
vt 0.139436 0.008823
vt 0.249411 0.002555
vt 0.266645 0.227565
vt 0.137216 0.265014
vt 0.624975 0.000100
vt 0.749950 0.000100
vt 0.938830 0.000100
vt 0.999900 0.000100
vt 0.914808 0.052173
vt 0.938802 0.053578
vt 0.370308 0.001326
vt 0.491205 0.000097
vt 0.483262 0.224190
vt 0.374954 0.225877
vt 0.375025 0.000100
vt 0.500000 0.000100
vt 0.461841 0.692937
vt 0.558512 0.688864
vt 0.806746 0.285640
vt 0.835190 0.503686
vt 0.753512 0.504238
vt 0.742886 0.352644
vt 0.669400 0.326794
vt 0.026468 0.500000
vt 0.026468 0.749950
vt 0.838642 0.044583
vt 0.026467 0.000100
vt 0.026467 0.250050
vt 0.026468 0.999899
vt 0.066857 0.831368
vt 0.001631 0.825237
vt 0.366874 0.683526
vt 0.803263 0.989207
vt 0.498139 0.912330
vt 0.463520 0.905676
vt 0.874925 0.500000
vt 0.874925 0.749950
vt 0.055445 0.496193
vt 0.071933 0.718944
vt 0.874925 0.000100
vt 0.874925 0.250050
vt 0.074842 0.009026
vt 0.073444 0.262555
vt 0.056643 0.953043
vt 0.441128 0.583204
vt 0.470098 0.566082
vt 0.874925 0.999900
vt 0.151735 0.603653
vt 0.157503 0.606238
vt 0.383079 0.311258
vt 0.479917 0.307404
vt 0.470839 0.500230
vt 0.377925 0.498742
vt 0.207447 0.326962
vt 0.286242 0.315113
vt 0.285010 0.497254
vt 0.574658 0.317099
vt 0.656711 0.503194
vt 0.563775 0.501712
vt 0.159710 0.000965
vt 0.160142 0.080130
vt 0.092224 0.074735
vt 0.084514 0.000102
vt 0.179578 0.493352
vt 0.229272 0.461554
vt 0.227513 0.463669
vt 0.208352 0.489436
vt 0.245044 0.492157
vt 0.250017 0.465910
vt 0.281988 0.472720
vt 0.276634 0.514839
vt 0.496068 0.117242
vt 0.437683 0.151531
vt 0.411152 0.127174
vt 0.458039 0.077266
vt 0.009081 0.177222
vt 0.076542 0.153258
vt 0.135493 0.258472
vt 0.042829 0.307725
vt 0.351153 0.538487
vt 0.347544 0.475380
vt 0.421111 0.444568
vt 0.491203 0.511372
vt 0.536578 0.375341
vt 0.456628 0.358512
vt 0.460486 0.260401
vt 0.536578 0.253390
vt 0.009376 0.030469
vt 0.024096 0.047199
vt 0.047183 0.096029
vt 0.000102 0.098292
vt 0.238873 0.482804
vt 0.242662 0.464530
vt 0.370619 0.102732
vt 0.400599 0.043722
vt 0.223080 0.007608
vt 0.217208 0.082227
vt 0.231388 0.465382
vt 0.228569 0.479645
vt 0.343524 0.028986
vt 0.322446 0.093528
vt 0.274273 0.084323
vt 0.286450 0.014251
vt 0.320238 0.526573
vt 0.289958 0.466678
vt 0.235497 0.455178
vt 0.139666 0.482634
vt 0.042080 0.009739
vt 0.054975 0.062886
vt 0.443261 0.165435
vt 0.508381 0.138953
vt 0.013664 0.260484
vt 0.000097 0.495885
vt 0.015472 0.719401
vt 0.000525 0.949183
vt 0.013418 0.009086
vt 0.000100 0.250050
vt 0.000101 0.500000
vt 0.000101 0.749950
vt 0.000101 0.999899
vt 0.000100 0.000100
vt 0.500000 0.999899
vt 0.375025 0.999899
vt 0.233348 0.464266
vt 0.230636 0.476548
vt 0.624975 0.999900
vt 0.238873 0.482804
vt 0.242662 0.464530
vt 0.233348 0.464266
vt 0.230636 0.476548
vt 0.853577 0.939247
vt 0.841858 0.013636
vt 0.164063 0.015899
vt 0.140625 0.938116
vt 0.845642 0.013636
vt 0.853454 0.940378
vn 0.0000 -1.0000 0.0000
vn 0.0000 0.0000 1.0000
vn 0.0000 0.0000 -1.0000
vn 1.0000 0.0000 0.0000
vn -1.0000 0.0000 0.0000
vn 0.0000 1.0000 0.0000
usemtl front
s off
f 180/1/1 87/2/1 185/3/1 186/4/1
f 100/5/2 144/6/2 150/7/2 126/8/2
f 84/9/3 128/10/3 149/11/3 125/12/3
f 102/13/3 146/14/3 148/15/3 114/16/3
f 86/17/2 130/18/2 147/19/2 113/20/2
f 92/21/3 136/22/3 146/14/3 102/13/3
f 113/20/2 147/19/2 145/23/2 101/24/2
f 94/25/2 138/26/2 144/6/2 100/5/2
f 125/27/3 149/28/3 143/29/3 99/30/3
f 163/31/2 165/32/2 138/26/2 94/25/2
f 99/30/3 143/29/3 137/33/3 93/34/3
f 179/35/3 181/36/3 136/22/3 92/21/3
f 101/24/2 145/23/2 135/37/2 91/38/2
f 164/39/3 166/40/3 132/41/3 88/42/3
f 180/1/2 182/43/2 131/44/2 87/2/2
f 126/8/2 150/7/2 127/45/2 83/46/2
f 114/47/3 148/48/3 129/49/3 85/50/3
f 93/34/3 137/33/3 166/40/3 164/39/3
f 87/2/2 131/44/2 165/32/2 163/31/2
f 91/38/2 135/37/2 182/43/2 180/1/2
f 88/42/3 132/41/3 181/36/3 179/35/3
f 87/2/1 163/31/1 187/51/1 185/3/1
usemtl side
f 89/52/4 133/53/4 142/54/4 98/55/4
f 83/56/5 127/57/5 141/58/5 97/59/5
f 90/60/5 134/61/5 140/62/5 96/63/5
f 85/64/4 129/65/4 139/66/4 95/67/4
f 97/59/5 141/58/5 134/61/5 90/60/5
f 95/67/4 139/66/4 133/53/4 89/52/4
f 98/55/4 142/54/4 130/68/4 86/69/4
f 96/63/5 140/62/5 128/70/5 84/71/5
usemtl concrete
f 140/72/5 28/73/5 4/74/5 128/75/5
f 148/76/3 103/77/3 8/78/3 129/79/3
f 142/80/4 39/81/4 6/82/4 130/83/4
f 150/84/2 116/85/2 2/86/2 127/87/2
f 112/88/1 43/89/1 5/90/1 104/91/1
f 124/92/6 42/93/6 2/94/6 116/95/6
f 175/96/6 40/97/6 12/98/6 168/99/6
f 159/100/1 41/101/1 11/102/1 152/103/1
f 182/104/2 168/105/2 12/106/2 131/107/2
f 166/108/3 151/109/3 10/110/3 132/111/3
f 157/112/1 33/113/1 17/114/1 155/115/1
f 44/116/2 66/117/2 82/118/2 77/119/2
f 123/120/6 28/121/6 14/122/6 122/123/6
f 111/124/1 29/125/1 15/126/1 110/127/1
f 139/128/4 31/129/4 16/130/4 133/131/4
f 141/132/5 42/133/5 14/134/5 134/135/5
f 172/136/1 34/137/1 22/138/1 169/139/1
f 57/140/2 47/141/2 78/142/2 79/143/2
f 145/144/2 62/145/2 21/146/2 135/147/2
f 66/117/6 44/116/6 21/148/6 62/149/6
f 174/150/1 45/151/1 19/152/1 171/153/1
f 181/154/3 170/155/3 18/156/3 136/157/3
f 66/117/4 60/158/4 80/159/4 82/118/4
f 54/160/1 37/161/1 27/162/1 50/163/1
f 143/164/3 51/165/3 25/166/3 137/167/3
f 56/168/1 46/169/1 26/170/1 52/171/1
f 158/172/6 47/141/6 24/173/6 154/174/6
f 165/175/2 154/176/2 24/177/2 138/178/2
f 48/179/1 23/180/1 37/161/1 54/160/1
f 151/181/6 25/182/6 36/183/6 156/184/6
f 58/185/6 18/186/6 35/187/6 64/188/6
f 167/189/1 20/190/1 34/137/1 172/136/1
f 129/79/4 8/78/4 31/129/4 139/128/4
f 108/191/1 7/192/1 29/125/1 111/124/1
f 120/193/6 4/194/6 28/121/6 123/120/6
f 170/195/6 10/196/6 32/197/6 173/198/6
f 153/199/1 9/200/1 33/113/1 157/112/1
f 134/135/5 14/134/5 28/73/5 140/72/5
f 158/172/2 40/97/2 76/201/2 162/202/2
f 50/163/1 27/162/1 46/169/1 56/168/1
f 169/139/1 22/138/1 45/151/1 174/150/1
f 55/203/5 53/204/5 73/205/5 75/206/5
f 127/87/5 2/86/5 42/133/5 141/132/5
f 155/115/1 17/114/1 41/101/1 159/100/1
f 36/183/3 55/203/3 75/206/3 74/207/3
f 122/123/6 14/122/6 42/93/6 124/92/6
f 110/127/1 15/126/1 43/89/1 112/88/1
f 133/131/4 16/130/4 39/81/4 142/80/4
f 53/204/5 57/140/5 79/143/5 73/205/5
f 117/208/1 50/163/1 56/168/1 119/209/1
f 25/182/6 51/210/6 55/203/6 36/183/6
f 115/211/1 48/179/1 54/160/1 118/212/1
f 119/209/1 56/168/1 52/171/1 121/213/1
f 149/214/3 120/215/3 51/165/3 143/164/3
f 118/212/1 54/160/1 50/163/1 117/208/1
f 175/96/2 44/116/2 77/119/2 178/216/2
f 47/141/6 57/140/6 49/217/6 24/173/6
f 138/178/2 24/177/2 49/218/2 144/219/2
f 22/138/1 63/220/1 67/221/1 45/151/1
f 105/222/6 60/158/6 66/117/6 107/223/6
f 20/190/1 61/224/1 65/225/1 34/137/1
f 103/226/6 58/185/6 64/188/6 106/227/6
f 107/223/6 66/117/6 62/149/6 109/228/6
f 147/229/2 109/230/2 62/145/2 145/144/2
f 106/227/6 64/188/6 60/158/6 105/222/6
f 34/137/1 65/225/1 63/220/1 22/138/1
f 45/151/1 67/221/1 59/231/1 19/152/1
f 136/157/3 18/156/3 58/232/3 146/233/3
f 177/234/6 68/235/6 69/236/6 176/237/6
f 81/238/6 72/239/6 71/240/6 80/159/6
f 161/241/6 74/207/6 70/242/6 160/243/6
f 160/243/6 70/242/6 78/142/6 162/202/6
f 80/159/6 71/240/6 77/119/6 82/118/6
f 176/237/6 69/236/6 76/201/6 178/216/6
f 70/242/6 73/205/6 79/143/6 78/142/6
f 74/207/6 75/206/6 73/205/6 70/242/6
f 173/198/3 32/197/3 68/235/3 177/234/3
f 156/184/3 36/183/3 74/207/3 161/241/3
f 60/158/4 64/188/4 81/238/4 80/159/4
f 64/188/3 35/187/3 72/239/3 81/238/3
f 20/244/3 92/245/3 102/246/3 61/247/3
f 104/248/2 113/249/2 101/250/2 59/251/2
f 26/252/2 94/253/2 100/254/2 52/255/2
f 115/256/3 125/257/3 99/258/3 48/259/3
f 15/260/4 89/261/4 98/262/4 43/263/4
f 1/264/5 83/265/5 97/266/5 38/267/5
f 13/268/5 90/269/5 96/270/5 30/271/5
f 7/272/4 85/273/4 95/274/4 29/275/4
f 152/276/2 163/277/2 94/253/2 26/252/2
f 48/259/3 99/258/3 93/278/3 23/279/3
f 167/280/3 179/281/3 92/245/3 20/244/3
f 59/251/2 101/250/2 91/282/2 19/283/2
f 38/267/5 97/266/5 90/269/5 13/268/5
f 29/275/4 95/274/4 89/261/4 15/260/4
f 153/284/3 164/285/3 88/286/3 9/287/3
f 121/288/2 126/289/2 83/265/2 1/264/2
f 43/263/4 98/262/4 86/290/4 5/291/4
f 108/292/3 114/293/3 85/273/3 7/272/3
f 30/271/5 96/270/5 84/294/5 3/295/5
f 61/247/3 102/246/3 114/293/3 108/292/3
f 5/291/2 86/290/2 113/249/2 104/248/2
f 31/296/6 106/227/6 105/222/6 16/297/6
f 130/83/2 6/82/2 109/230/2 147/229/2
f 39/298/6 107/223/6 109/228/6 6/299/6
f 8/300/6 103/226/6 106/227/6 31/296/6
f 16/297/6 105/222/6 107/223/6 39/298/6
f 63/220/1 110/127/1 112/88/1 67/221/1
f 61/224/1 108/191/1 111/124/1 65/225/1
f 65/225/1 111/124/1 110/127/1 63/220/1
f 67/221/1 112/88/1 104/91/1 59/231/1
f 146/233/3 58/232/3 103/77/3 148/76/3
f 52/255/2 100/254/2 126/289/2 121/288/2
f 3/295/3 84/294/3 125/257/3 115/256/3
f 30/301/1 118/212/1 117/208/1 13/302/1
f 128/75/3 4/74/3 120/215/3 149/214/3
f 38/303/1 119/209/1 121/213/1 1/304/1
f 3/305/1 115/211/1 118/212/1 30/301/1
f 13/302/1 117/208/1 119/209/1 38/303/1
f 53/204/6 122/123/6 124/92/6 57/140/6
f 51/210/6 120/193/6 123/120/6 55/203/6
f 55/203/6 123/120/6 122/123/6 53/204/6
f 57/140/6 124/92/6 116/95/6 49/217/6
f 144/219/2 49/218/2 116/85/2 150/84/2
f 23/279/3 93/278/3 164/285/3 153/284/3
f 152/103/6 11/102/6 184/306/6 183/307/6
f 32/197/3 156/184/3 161/241/3 68/235/3
f 69/236/6 160/243/6 162/202/6 76/201/6
f 68/235/6 161/241/6 160/243/6 69/236/6
f 27/162/1 155/115/1 159/100/1 46/169/1
f 47/141/2 158/172/2 162/202/2 78/142/2
f 23/180/1 153/199/1 157/112/1 37/161/1
f 10/196/6 151/181/6 156/184/6 32/197/6
f 131/107/2 12/106/2 154/176/2 165/175/2
f 40/97/6 158/172/6 154/174/6 12/98/6
f 37/161/1 157/112/1 155/115/1 27/162/1
f 137/167/3 25/166/3 151/109/3 166/108/3
f 46/169/1 159/100/1 152/103/1 26/170/1
f 19/283/2 91/282/2 180/308/2 171/309/2
f 9/287/3 88/286/3 179/281/3 167/280/3
f 35/187/3 173/198/3 177/234/3 72/239/3
f 71/240/6 176/237/6 178/216/6 77/119/6
f 72/239/6 177/234/6 176/237/6 71/240/6
f 40/97/2 175/96/2 178/216/2 76/201/2
f 17/114/1 169/139/1 174/150/1 41/101/1
f 18/186/6 170/195/6 173/198/6 35/187/6
f 9/200/1 167/189/1 172/136/1 33/113/1
f 132/111/3 10/110/3 170/155/3 181/154/3
f 41/101/1 174/150/1 171/153/1 11/102/1
f 33/113/1 172/136/1 169/139/1 17/114/1
f 135/147/2 21/146/2 168/105/2 182/104/2
f 44/116/6 175/96/6 168/99/6 21/148/6
f 11/102/6 171/153/6 188/310/6 184/306/6
f 163/277/4 152/276/4 183/311/4 187/312/4
f 171/309/5 180/308/5 186/313/5 188/314/5
usemtl door
f 188/315/2 186/316/2 185/317/2 184/318/2
f 184/318/2 185/317/2 187/319/2 183/320/2
