# Blender v2.92.0 OBJ File: 'stone.blend'
# www.blender.org
mtllib stone.mtl
o Icosphere
v -1.518639 -3.477005 2.712112
v 3.143642 -2.319240 -1.359388
v -2.458716 -2.272848 4.310735
v -4.300238 -1.860931 1.186667
v -3.105075 -2.639154 -3.311190
v 2.034125 -2.266922 -2.790072
v -4.178628 6.128509 7.313302
v -8.535026 5.299172 5.033000
v -7.693140 1.425502 -2.549795
v -1.425761 5.686295 -7.552536
v 3.908469 5.460345 0.633736
v -4.721604 10.951605 1.266433
v -0.186870 10.349380 1.156530
v -4.465250 10.226329 4.898863
v -2.243691 9.096408 -1.766494
v 1.062532 9.520483 1.308266
v -4.321939 8.177419 6.106083
v -6.904810 11.059604 3.030317
v -6.028533 7.569546 -0.494265
v -0.627727 7.796857 -4.477737
v 2.145074 8.412507 1.076930
v -4.250284 7.152964 6.709692
v -7.589238 7.555416 4.395856
v -6.957822 4.650164 -1.291240
v -1.841525 6.766027 -6.297916
v 3.367198 6.014334 0.749404
vt -0.817794 1.457250
vt -0.440633 0.803980
vt -1.194954 0.803980
vt -0.063473 1.457250
vt 0.313687 0.803980
vt 2.199489 1.457250
vt 2.576650 0.803980
vt 1.822329 0.803980
vt 1.445168 1.457250
vt 1.068008 0.803980
vt 0.690848 1.457250
vt -0.063473 0.150715
vt -0.817794 0.150715
vt 2.199489 0.150715
vt 1.445168 0.150715
vt 0.690848 0.150715
vt -0.440633 0.787921
vt -0.082017 0.166775
vt -0.799250 0.166775
vt -1.572119 0.150715
vt 0.313687 0.770906
vt 0.652657 0.183790
vt -0.025282 0.183790
vt -0.629214 -0.175920
vt -0.157763 -0.012602
vt -0.252053 -0.175920
vt -0.440633 -0.502554
vt -1.383537 -0.175920
vt -0.912084 -0.012602
vt -1.006374 -0.175920
vt -1.194954 -0.502554
vt 1.633749 -0.175920
vt 2.010909 -0.175920
vt 1.822329 -0.502554
vt 0.744917 0.029197
vt 1.296810 -0.161986
vt 1.076052 -0.544353
vt 0.855295 -0.161986
vt 0.030817 -0.012602
vt 0.502268 -0.175920
vt 0.313687 -0.502554
vt 0.125107 -0.175920
vt -0.016328 0.069056
vt 0.596558 -0.012602
vt -0.723504 -0.012602
vt -0.110618 0.069056
vt -0.770649 0.069056
vt -0.087046 0.109886
vt -0.005449 0.449474
vt 0.678154 0.408645
vt 0.712658 0.079183
vt 1.376213 -0.009227
vt 1.274128 -0.186046
vt 0.763701 -0.009227
vt 1.539459 -0.012602
vt 2.105199 -0.012602
vt -1.477828 -0.012602
vt -0.864939 0.069056
vt 1.350878 -0.012602
vt 0.737993 0.069056
vt 0.643703 0.069056
vt -0.039900 0.109886
vn 0.6633 -0.3561 0.6582
vn 0.1268 -0.9828 -0.1343
vn -0.5831 -0.7757 0.2414
vn -0.5080 -0.8612 0.0140
vn 0.0874 -0.9833 -0.1598
vn 0.7892 0.0785 -0.6091
vn 0.7070 -0.1052 0.6994
vn -0.7166 -0.6077 0.3423
vn -0.6668 -0.7436 -0.0485
vn 0.1227 -0.4700 -0.8741
vn 0.6036 -0.2530 0.7561
vn -0.3715 -0.3790 0.8476
vn -0.7890 -0.5782 0.2078
vn -0.4368 -0.3368 -0.8341
vn 0.8377 0.0382 -0.5448
vn 0.2278 0.9292 0.2910
vn -0.0896 0.8609 0.5009
vn -0.5109 0.5440 -0.6657
vn -0.4614 0.5967 -0.6566
vn 0.2105 0.8361 -0.5065
vn 0.3683 0.8561 -0.3626
vn 0.5373 0.4325 0.7241
vn 0.6006 0.2872 0.7462
vn 0.8025 0.3181 -0.5048
vn -0.5743 0.6453 -0.5037
vn -0.9320 0.2079 -0.2969
vn -0.4835 0.4033 0.7770
vn -0.4824 0.4194 0.7690
vn -0.9145 0.3100 -0.2599
vn -0.7215 0.3883 -0.5733
vn 0.6189 0.6850 -0.3844
vn 0.5935 0.4390 0.6746
usemtl Material.001
s off
f 1/1/1 2/2/1 3/3/1
f 2/2/2 1/4/2 6/5/2
f 1/6/3 3/7/3 4/8/3
f 1/9/4 4/8/4 5/10/4
f 1/11/5 5/10/5 6/5/5
f 2/2/6 6/5/6 11/12/6
f 3/3/7 2/2/7 7/13/7
f 4/8/8 3/7/8 8/14/8
f 5/10/9 4/8/9 9/15/9
f 6/5/10 5/10/10 10/16/10
f 2/17/11 11/18/11 7/19/11
f 3/3/12 7/13/12 8/20/12
f 4/8/13 8/14/13 9/15/13
f 5/10/14 9/15/14 10/16/14
f 6/21/15 10/22/15 11/23/15
f 14/24/16 16/25/16 13/26/16 12/27/16
f 18/28/17 17/29/17 14/30/17 12/31/17
f 19/32/18 18/33/18 12/34/18
f 20/35/19 19/36/19 12/37/19 15/38/19
f 16/39/20 15/40/20 12/41/20 13/42/20
f 21/43/21 20/44/21 15/40/21 16/39/21
f 17/45/22 21/46/22 16/25/22 14/24/22
f 22/47/23 26/48/23 21/46/23 17/45/23
f 26/49/24 25/50/24 20/44/24 21/43/24
f 25/51/25 24/52/25 19/53/25 20/54/25
f 24/55/26 23/56/26 18/33/26 19/32/26
f 23/57/27 22/58/27 17/29/27 18/28/27
f 8/20/28 7/13/28 22/58/28 23/57/28
f 9/15/29 8/14/29 23/56/29 24/55/29
f 10/16/30 9/15/30 24/59/30 25/60/30
f 11/12/31 10/16/31 25/61/31 26/62/31
f 7/13/32 11/12/32 26/48/32 22/47/32
