# Blender v2.92.0 OBJ File: 'door.blend'
# www.blender.org
mtllib door.mtl
o Cube
v 0.083711 2.000000 -1.000000
v 0.083711 -2.000000 -1.000000
v 0.083711 2.000000 1.000000
v 0.083711 -2.000000 1.000000
v -0.092779 2.000000 -1.000000
v -0.092779 -2.000000 -1.000000
v -0.092779 2.000000 1.000000
v -0.092779 -2.000000 1.000000
vt 0.693239 0.001028
vt 0.752624 0.001028
vt 0.753854 0.663305
vt 0.694469 0.663305
vt 0.270417 0.003152
vt 0.282951 0.905029
vt 0.238657 0.952015
vt 0.238427 0.002153
vt 0.282721 0.011074
vt 0.284182 0.915411
vt 0.702515 0.909490
vt 0.702284 0.008843
vt 0.240102 0.907260
vt 0.747133 0.907260
vt 0.747133 0.951784
vt 0.240102 0.951784
vt 0.701701 0.012335
vt 0.700753 0.905835
vt 0.273535 0.913642
vt 0.278581 0.012329
vt 0.707452 -0.003461
vt 0.742871 -0.003461
vt 0.745977 0.769456
vt 0.704347 0.769456
vn 0.0000 1.0000 0.0000
vn 0.0000 0.0000 1.0000
vn -1.0000 0.0000 0.0000
vn 0.0000 -1.0000 0.0000
vn 1.0000 0.0000 0.0000
vn 0.0000 0.0000 -1.0000
usemtl Material
s off
f 1/1/1 5/2/1 7/3/1 3/4/1
f 4/5/2 3/6/2 7/7/2 8/8/2
f 8/9/3 7/10/3 5/11/3 6/12/3
f 6/13/4 2/14/4 4/15/4 8/16/4
f 2/17/5 1/18/5 3/19/5 4/20/5
f 6/21/6 5/22/6 1/23/6 2/24/6
