# Blender v2.91.2 OBJ File: 'dry_tree.blend'
# www.blender.org
mtllib dry_tree.mtl
o Dry_Tree_Model
v 0.710616 13.288416 2.012738
v 0.436449 -0.436449 -0.436449
v 0.739903 13.242766 2.078233
v 0.436449 -0.436449 0.436449
v 0.632987 13.288416 2.047451
v -0.436449 -0.436449 -0.436449
v 0.662274 13.242766 2.112946
v -0.436449 -0.436449 0.436449
v 0.239484 6.570292 -0.239484
v -0.239484 6.570292 0.239484
v 0.239484 6.570292 0.239484
v -0.239484 6.570292 -0.239484
v -0.381606 10.204511 0.374242
v -0.099603 10.355896 0.136318
v -0.099603 10.204511 0.374242
v -0.381606 10.355896 0.136318
v 0.190243 8.453050 0.035378
v 0.190243 8.353528 0.402617
v -0.190243 8.453050 0.035378
v -0.190243 8.353527 0.402616
v 0.250427 11.738445 1.312538
v 0.354757 11.836963 1.096277
v 0.417961 11.738445 1.237624
v 0.187223 11.836963 1.171191
v 0.337967 3.066921 -0.337967
v 0.337967 3.066921 0.337967
v -0.337967 3.066921 -0.337967
v -0.337967 3.066921 0.337967
v -0.288725 4.818606 0.288725
v 0.288725 4.818607 -0.288725
v 0.288725 4.818607 0.288725
v -0.288725 4.818607 -0.288725
v 0.214863 7.446136 -0.214863
v 0.214863 7.446136 0.214863
v -0.214863 7.446136 -0.214863
v -0.214863 7.446134 0.214863
v -0.264105 5.694449 0.264105
v 0.264105 5.694449 -0.264105
v 0.264105 5.694449 0.264105
v -0.264105 5.694449 -0.264105
v 0.313346 3.942764 -0.313346
v 0.313346 3.942764 0.313346
v -0.313346 3.942764 -0.313346
v -0.313346 3.942763 0.313346
v -0.165622 9.205319 0.607943
v 0.165622 9.291961 0.288231
v 0.165622 9.205319 0.607943
v -0.165622 9.291961 0.288231
v 0.176827 11.111237 0.638047
v 0.256990 10.986285 0.817320
v -0.035659 11.111237 0.733061
v 0.044504 10.986285 0.912334
v 1.988003 9.475611 -0.969426
v 2.296772 9.424059 -0.978222
v 1.988003 9.475611 -0.815895
v 2.296772 9.424059 -0.807098
v 2.470809 11.811436 -0.115592
v 2.598970 11.790038 -0.119243
v 2.470809 11.811436 -0.051866
v 2.598970 11.790038 -0.048215
v -1.953656 6.932436 -0.049827
v -1.526321 7.193593 0.011525
v -1.472704 7.184317 -0.258761
v -1.894526 6.922206 -0.347900
v -2.691110 8.404991 -0.310705
v -2.440273 8.558285 -0.274692
v -2.408800 8.552840 -0.433345
v -2.656402 8.398987 -0.485668
v -3.403178 9.865385 -0.925838
v -3.353478 9.895759 -0.918702
v -3.347242 9.894680 -0.950137
v -3.396301 9.864196 -0.960504
v -0.059542 6.607134 -1.983447
v -0.045713 6.305463 -2.372302
v -0.356235 6.607134 -1.983447
v -0.370064 6.305463 -2.372302
v 0.485609 9.482355 -3.638007
v 0.489965 9.387325 -3.760501
v 0.392147 9.482355 -3.638007
v 0.387790 9.387325 -3.760501
v 0.117115 5.732058 1.474745
v 0.301715 5.992566 0.999636
v 0.619991 5.790306 0.999636
v 0.462532 5.512550 1.474745
v -0.126947 7.289414 2.326787
v 0.007024 7.478473 1.981983
v 0.238008 7.331686 1.981983
v 0.123734 7.130109 2.326786
v 0.209640 9.479342 3.851054
v 0.261674 9.552772 3.717136
v 0.351386 9.495761 3.717136
v 0.307004 9.417470 3.851054
vt 1.579711 0.488104
vt 3.779006 0.463069
vt 3.832531 1.142146
vt 1.633236 1.167181
vt 1.358325 1.170310
vt 1.686762 1.846258
vt 1.411851 1.849387
vt 1.197749 -0.866921
vt 1.472661 -0.870050
vt 1.526186 -0.190973
vt 1.251275 -0.187844
vt -2.818876 0.538173
vt -0.619582 0.513139
vt -0.566057 1.192216
vt -2.765351 1.217250
vt 1.304800 0.491233
vt 0.289083 -0.176891
vt 0.426539 -0.178456
vt 0.480064 0.500621
vt 0.342609 0.502186
vt 0.533590 1.179698
vt 0.396134 1.181263
vt -0.971795 -3.139936
vt 0.265195 -3.296090
vt -0.367281 -2.715002
vt -0.364184 -2.724391
vt 0.587114 1.858775
vt 0.449659 1.860340
vt 0.838907 -0.183150
vt 0.976363 -0.184715
vt 1.029889 0.494362
vt 0.892432 0.495927
vt 1.083413 1.173439
vt 0.945957 1.175004
vt 0.785382 -0.862227
vt 0.922838 -0.863791
vt 1.136938 1.852517
vt 0.999482 1.854081
vt 0.671046 1.178133
vt 0.808502 1.176569
vt 0.862027 1.855646
vt 0.724571 1.857211
vt 0.510470 -0.859098
vt 0.647926 -0.860662
vt 0.701451 -0.181585
vt 0.563995 -0.180021
vt 0.617520 0.499056
vt 0.754977 0.497492
vt 1.113819 -0.186279
vt 1.167344 0.492798
vt 1.220869 1.171875
vt 1.060294 -0.865356
vt 1.274395 1.850952
vt -0.016234 1.185957
vt 0.037292 1.865034
vt -0.512532 1.871293
vt -0.726633 -0.845015
vt -0.176809 -0.851274
vt -0.123284 -0.172197
vt -0.673107 -0.165938
vt -0.069759 0.506880
vt 1.221873 -3.040382
vt 1.144384 -2.614794
vt 1.127423 -2.195779
vt 1.077215 -2.185217
vt -0.039354 -0.852839
vt 0.098103 -0.854403
vt 0.151627 -0.175327
vt 0.014171 -0.173762
vt 0.067696 0.505315
vt 0.205153 0.503750
vt 0.258678 1.182827
vt 0.121222 1.184392
vt 1.069970 -3.296090
vt 1.069970 -1.739545
vt 0.647335 -2.581959
vt 0.636413 -2.577825
vt 0.373014 -0.857533
vt 0.312203 1.861905
vt 0.235559 -0.855968
vt 1.295001 3.861560
vt 1.261313 4.004315
vt 1.308273 2.887256
vt 1.222715 2.850588
vt 0.174747 1.863469
vt 0.999894 0.849368
vt 0.799621 0.815288
vt 0.874552 0.425434
vt 0.873908 0.427986
vt 0.342189 -1.792392
vt 0.266037 -3.245101
vt 0.638810 -2.574467
vt 0.644867 -2.568042
vt 0.875753 0.430814
vt 0.875697 0.428255
vt 0.758430 0.065064
vt 0.999894 0.000106
vt 0.758218 0.000106
vt 0.758218 0.488637
vt 0.358364 0.230367
vt 0.356847 0.229831
vt 0.265195 -2.104905
vt -0.369439 -2.717433
vt -1.003678 -2.451459
vt -0.372578 -2.722833
vt 0.137132 0.015818
vt -0.101651 0.024803
vt 0.103828 0.987926
vt 0.134359 0.999981
vt 0.000106 0.396683
vt 0.004608 0.028878
vt 0.357396 0.230834
vt 0.357606 0.231238
vt 0.121838 0.986218
vt 0.137132 0.986704
vt 0.103316 0.000019
vt -0.068436 0.009131
vt 1.234122 2.839488
vt 1.300657 2.805865
vt 1.308273 -3.240732
vt 1.249104 -3.296090
vt 1.228811 3.647201
vt 1.288841 3.609760
vt 1.267318 -3.112690
vt 1.273254 -3.118919
vt 1.162899 -1.147441
vt 1.096562 -1.106104
vt 1.086158 -2.718703
vt 1.087502 -2.120349
vt 1.100282 -3.296090
vt 1.140978 -2.087135
vt 1.165660 -0.949702
vt 1.169371 4.145041
vt 1.185699 4.236525
vt 1.070812 -1.002746
vt 1.221873 4.146698
vt 1.184672 4.296090
vn 0.2191 0.8437 0.4901
vn 0.3504 -0.5129 0.7837
vn -0.9064 0.0237 0.4218
vn 0.0000 -1.0000 0.0000
vn 0.9187 0.0237 -0.3943
vn -0.3381 0.5603 -0.7561
vn 0.0000 0.0281 -0.9996
vn 0.9996 0.0281 0.0000
vn -0.1598 0.0317 0.9866
vn -0.0000 0.0281 0.9996
vn 0.0000 -0.1414 -0.9900
vn 0.9568 0.2673 0.1141
vn -0.9707 -0.2209 -0.0943
vn 0.0000 0.2277 0.9737
vn 0.0000 -0.2026 0.9793
vn -0.9997 0.0250 0.0031
vn 0.9997 0.0250 0.0031
vn 0.0000 0.2412 -0.9705
vn -0.9996 0.0281 0.0000
vn 0.9881 -0.1408 -0.0624
vn 0.3187 0.1483 0.9362
vn 0.0000 -0.8140 -0.5809
vn 0.0000 -0.2343 0.9722
vn -0.9996 0.0271 0.0074
vn 0.9996 0.0271 0.0073
vn 0.0000 0.2886 -0.9575
vn 0.1538 -0.5793 0.8005
vn -0.9195 0.2226 0.3241
vn 0.9314 -0.1944 -0.3077
vn -0.1479 0.6208 -0.7699
vn -0.9793 0.2024 0.0000
vn -0.2857 -0.0682 -0.9559
vn -0.7531 0.6579 0.0000
vn 0.8112 -0.5848 0.0000
vn 0.1647 0.9863 0.0000
vn -0.0765 -0.2957 0.9522
vn 0.9919 -0.1267 0.0000
vn 0.0296 0.3378 -0.9408
vn -0.8716 -0.4643 -0.1570
vn 0.4390 0.8982 0.0203
vn -0.5934 -0.8042 -0.0325
vn 0.0796 0.0682 -0.9945
vn 0.7867 0.6023 0.1354
vn 0.8087 0.5711 0.1408
vn 0.1998 0.0117 -0.9798
vn -0.1887 0.0789 0.9789
vn -0.5035 0.8543 -0.1292
vn 0.2960 -0.1559 -0.9424
vn -0.2858 0.2503 0.9250
vn -0.8610 -0.4847 -0.1542
vn 0.0000 0.4988 0.8667
vn -0.9984 0.0136 0.0541
vn 0.9895 0.0757 -0.1235
vn 0.0000 0.8833 0.4689
vn 0.0000 0.7901 -0.6130
vn -0.9755 0.1893 -0.1122
vn 0.0000 -0.4107 -0.9118
vn 0.9855 -0.1152 0.1245
vn 0.9444 0.0252 0.3277
vn 0.1160 0.5136 -0.8502
vn -0.9601 0.2400 0.1437
vn -0.1241 -0.5498 0.8260
vn -0.3222 -0.5070 0.7995
vn -0.9386 0.0403 -0.3426
vn -0.3134 -0.4931 0.8116
vn 0.3580 0.5633 -0.7447
vn 0.4453 0.7008 0.5573
vn 0.3630 0.5712 -0.7362
vn 0.9583 -0.2076 0.1963
vn -0.9355 0.2872 -0.2060
usemtl Log
s off
f 1/1/1 5/2/1 7/3/1 3/4/1
f 23/5/2 3/4/2 7/6/2 21/7/2
f 21/8/3 7/9/3 5/10/3 24/11/3
f 6/12/4 2/13/4 4/14/4 8/15/4
f 22/16/5 1/1/5 3/4/5 23/5/5
f 24/11/6 5/10/6 1/1/6 22/16/6
f 40/17/7 12/18/7 9/19/7 38/20/7
f 38/20/8 9/19/8 11/21/8 39/22/8
f 37/23/9 10/24/9 62/25/9 61/26/9
f 39/22/10 11/21/10 10/27/10 37/28/10
f 48/29/11 16/30/11 14/31/11 46/32/11
f 46/32/12 14/31/12 15/33/12 47/34/12
f 45/35/13 13/36/13 16/30/13 48/29/13
f 47/34/14 15/33/14 13/37/14 45/38/14
f 34/39/15 18/40/15 20/41/15 36/42/15
f 36/43/16 20/44/16 19/45/16 35/46/16
f 33/47/17 17/48/17 18/40/17 34/39/17
f 35/46/18 19/45/18 17/48/18 33/47/18
f 51/49/6 24/11/6 22/16/6 49/50/6
f 49/50/5 22/16/5 23/5/5 50/51/5
f 52/52/3 21/8/3 24/11/3 51/49/3
f 50/51/2 23/5/2 21/7/2 52/53/2
f 4/14/10 26/54/10 28/55/10 8/56/10
f 8/57/19 28/58/19 27/59/19 6/60/19
f 2/13/8 25/61/8 26/54/8 4/14/8
f 6/60/7 27/59/7 25/61/7 2/13/7
f 42/62/20 31/63/20 83/64/20 84/65/20
f 44/66/19 29/67/19 32/68/19 43/69/19
f 41/70/8 30/71/8 31/72/8 42/73/8
f 43/69/7 32/68/7 30/71/7 41/70/7
f 12/18/7 35/46/7 33/47/7 9/19/7
f 34/74/21 11/75/21 56/76/21 55/77/21
f 10/78/19 36/43/19 35/46/19 12/18/19
f 11/21/10 34/39/10 36/42/10 10/27/10
f 31/72/10 39/22/10 37/28/10 29/79/10
f 29/67/19 37/80/19 40/17/19 32/68/19
f 30/71/8 38/20/8 39/22/8 31/72/8
f 30/81/22 32/82/22 76/83/22 74/84/22
f 27/59/7 43/69/7 41/70/7 25/61/7
f 25/61/8 41/70/8 42/73/8 26/54/8
f 28/58/19 44/66/19 43/69/19 27/59/19
f 26/54/10 42/73/10 44/85/10 28/55/10
f 18/40/23 47/34/23 45/38/23 20/41/23
f 20/44/24 45/35/24 48/29/24 19/45/24
f 17/48/25 46/32/25 47/34/25 18/40/25
f 19/45/26 48/29/26 46/32/26 17/48/26
f 15/33/27 50/51/27 52/53/27 13/37/27
f 13/36/28 52/52/28 51/49/28 16/30/28
f 14/31/29 49/50/29 50/51/29 15/33/29
f 16/30/30 51/49/30 49/50/30 14/31/30
f 53/86/31 55/87/31 59/88/31 57/89/31
f 9/90/32 33/91/32 53/92/32 54/93/32
f 33/91/33 34/74/33 55/77/33 53/92/33
f 11/75/34 9/90/34 54/93/34 56/76/34
f 58/94/35 57/89/35 59/88/35 60/95/35
f 55/87/36 56/96/36 60/95/36 59/88/36
f 56/96/37 54/97/37 58/94/37 60/95/37
f 54/97/38 53/86/38 57/89/38 58/94/38
f 64/98/39 61/99/39 65/100/39 68/101/39
f 10/24/40 12/102/40 63/103/40 62/25/40
f 40/104/41 37/23/41 61/26/41 64/105/41
f 12/102/42 40/104/42 64/105/42 63/103/42
f 66/106/43 67/107/43 71/108/43 70/109/43
f 62/110/44 63/111/44 67/112/44 66/113/44
f 63/111/45 64/98/45 68/101/45 67/112/45
f 61/99/46 62/110/46 66/113/46 65/100/46
f 69/114/47 70/109/47 71/108/47 72/115/47
f 67/107/48 68/116/48 72/115/48 71/108/48
f 65/117/49 66/106/49 70/109/49 69/114/49
f 68/116/50 65/117/50 69/114/50 72/115/50
f 75/118/51 73/119/51 77/120/51 79/121/51
f 32/82/52 40/122/52 75/118/52 76/83/52
f 38/123/53 30/81/53 74/84/53 73/119/53
f 40/122/54 38/123/54 73/119/54 75/118/54
f 80/124/55 79/121/55 77/120/55 78/125/55
f 76/83/56 75/118/56 79/121/56 80/124/56
f 74/84/57 76/83/57 80/124/57 78/125/57
f 73/119/58 74/84/58 78/125/58 77/120/58
f 84/65/59 83/64/59 87/126/59 88/127/59
f 31/63/60 29/128/60 82/129/60 83/64/60
f 29/128/61 44/130/61 81/131/61 82/129/61
f 44/130/62 42/62/62 84/65/62 81/131/62
f 85/132/63 88/127/63 92/133/63 89/134/63
f 82/129/64 81/131/64 85/132/64 86/135/64
f 81/131/65 84/65/65 88/127/65 85/132/65
f 83/64/66 82/129/66 86/135/66 87/126/66
f 92/133/67 91/136/67 90/137/67 89/134/67
f 87/126/68 86/135/68 90/137/68 91/136/68
f 88/127/69 87/126/69 91/136/69 92/133/69
f 86/135/70 85/132/70 89/134/70 90/137/70
