# Blender v2.91.2 OBJ File: 'untitled.blend'
# www.blender.org
mtllib key.mtl
o Cube.001_Cube
v -0.006987 -0.055557 0.000000
v -0.006987 -0.045676 0.009881
v -0.006987 -0.045676 -0.009881
v -0.006987 -0.035795 0.000000
v 0.006987 -0.055557 0.000000
v 0.006987 -0.045676 0.009881
v 0.006987 -0.045676 -0.009881
v 0.006987 -0.035795 0.000000
v 0.045285 0.002504 0.000000
v 0.055166 0.002504 -0.009881
v 0.065048 0.002504 0.000000
v 0.055166 0.002504 0.009881
v -0.055166 0.002504 -0.009881
v -0.065048 0.002504 0.000000
v -0.055166 0.002504 0.007764
v -0.045285 0.002504 0.000000
v 0.045285 0.016817 0.000000
v 0.055166 0.016817 -0.009881
v 0.065048 0.016817 0.000000
v 0.055166 0.016817 0.009881
v -0.055166 0.016817 -0.009881
v -0.065048 0.016817 0.000000
v -0.055166 0.016817 0.007764
v -0.045285 0.016817 0.000000
v -0.006987 0.076274 -0.009881
v -0.006987 0.086155 0.000000
v -0.006987 0.076274 0.009881
v -0.006987 0.066393 0.000000
v 0.006979 0.066333 -0.000003
v 0.006979 0.076214 -0.009884
v 0.006979 0.086096 -0.000003
v 0.006979 0.076214 0.009878
v -0.045285 0.002504 0.000000
v -0.055166 0.002504 -0.007764
v -0.045285 0.016817 0.000000
v -0.055166 0.016817 -0.007764
v 0.054885 0.002504 0.007764
v 0.064766 0.002504 0.000000
v 0.054885 0.016817 0.007764
v 0.064766 0.016817 0.000000
v 0.064766 0.002504 0.000000
v 0.054885 0.002504 -0.007764
v 0.064766 0.016817 0.000000
v 0.054885 0.016817 -0.007764
v -0.006987 0.076197 0.009881
v -0.006987 0.086079 0.000000
v -0.006987 0.076197 -0.009881
v 0.006987 0.076197 -0.009881
v 0.006987 0.086079 0.000000
v 0.006987 0.076197 0.009881
v 0.256838 0.002504 0.000000
v 0.246957 0.002504 -0.009881
v 0.246957 0.002504 0.009881
v 0.256838 0.016817 0.000000
v 0.246957 0.016817 -0.009881
v 0.246957 0.016817 0.009881
v 0.151062 0.002504 0.009881
v 0.151062 0.016817 0.009881
v 0.160943 0.016817 0.000000
v 0.151062 0.016817 -0.009881
v 0.160943 0.002504 0.000000
v 0.151062 0.002504 -0.009881
v 0.199009 0.002504 0.009881
v 0.208890 0.016817 0.000000
v 0.208890 0.002504 0.000000
v 0.199009 0.002504 -0.009881
v 0.199009 0.016817 0.009881
v 0.199009 0.016817 -0.009881
v 0.222983 0.002504 0.009881
v 0.232864 0.016817 0.000000
v 0.232864 0.002504 0.000000
v 0.222983 0.002504 -0.009881
v 0.222983 0.016817 0.009881
v 0.222983 0.016817 -0.009881
v 0.175035 0.016817 0.009881
v 0.175035 0.016817 -0.009881
v 0.175035 0.002504 0.009881
v 0.184917 0.016817 0.000000
v 0.184917 0.002504 0.000000
v 0.175035 0.002504 -0.009881
v 0.210996 0.016817 0.009881
v 0.210996 0.016817 -0.009881
v 0.210996 0.002504 0.009881
v 0.220877 0.016817 0.000000
v 0.220877 0.002504 0.000000
v 0.210996 0.002504 -0.009881
v 0.234970 0.002504 0.009881
v 0.244851 0.016817 0.000000
v 0.244851 0.002504 0.000000
v 0.234970 0.002504 -0.009881
v 0.234970 0.016817 0.009881
v 0.234970 0.016817 -0.009881
v 0.187022 0.002504 0.009881
v 0.196904 0.016817 0.000000
v 0.196904 0.002504 0.000000
v 0.187022 0.002504 -0.009881
v 0.187022 0.016817 0.009881
v 0.187022 0.016817 -0.009881
v 0.163049 0.016817 0.009881
v 0.163049 0.016817 -0.009881
v 0.163049 0.002504 0.009881
v 0.172930 0.016817 0.000000
v 0.172930 0.002504 0.000000
v 0.163049 0.002504 -0.009881
v 0.184917 -0.018950 0.000000
v 0.175035 -0.018950 0.009881
v 0.175035 -0.018950 -0.009881
v 0.187022 -0.018950 0.009881
v 0.196904 -0.018950 0.000000
v 0.187022 -0.018950 -0.009881
v 0.199009 -0.031271 -0.009881
v 0.208890 -0.031271 0.000000
v 0.199009 -0.031271 0.009881
v 0.210996 -0.031271 0.009881
v 0.220877 -0.031271 0.000000
v 0.210996 -0.031271 -0.009881
v 0.222983 -0.007700 -0.009881
v 0.232864 -0.007700 0.000000
v 0.222983 -0.007700 0.009881
v 0.234970 -0.007700 0.009881
v 0.244851 -0.007700 0.000000
v 0.234970 -0.007700 -0.009881
v 0.151062 -0.029608 -0.009881
v 0.160943 -0.029608 0.000000
v 0.151062 -0.029608 0.009881
v 0.163049 -0.029608 0.009881
v 0.172930 -0.029608 0.000000
v 0.163049 -0.029608 -0.009881
v 0.222983 -0.039811 -0.009881
v 0.232864 -0.039811 0.000000
v 0.222983 -0.039811 0.009881
v 0.234970 -0.039811 0.009881
v 0.244851 -0.039811 0.000000
v 0.234970 -0.039811 -0.009881
vt 1.156684 -0.813368
vt -0.156684 -0.813368
vt -0.156684 -0.813368
vt 1.156684 -0.813368
vt 1.156684 0.500000
vt -0.156684 0.500000
vt -0.156684 0.500000
vt 1.156684 0.500000
vt 1.156684 1.813368
vt -0.156684 1.813368
vt -0.156684 1.813368
vt 1.156684 1.813368
vt 1.156684 3.126737
vt -0.156684 3.126737
vt -1.470053 0.500000
vt -1.470053 1.813368
vt 1.156684 1.813368
vt -1.470053 0.500000
vt -1.470053 1.813368
vt -1.470053 1.813368
vt -1.470053 0.500000
vt -0.156684 0.500000
vt 1.156684 0.500000
vt 2.470053 0.500000
vt 2.470053 0.500000
vt 2.470053 0.500000
vt 2.470053 0.500000
vt 1.156684 3.126737
vt -0.156684 3.126737
vt 2.470053 1.813368
vt 2.470053 0.500000
vt 2.470053 0.500000
vt 2.470053 1.813368
vt 1.156684 0.500000
vt 1.156684 1.813368
vt 1.156684 1.813368
vt 1.156684 0.500000
vt -0.156684 3.126737
vt 1.156684 3.126737
vt 1.156684 3.126737
vt -0.156684 3.126737
vt -0.156684 -0.813368
vt 1.156684 -0.813368
vt 1.156684 -0.813368
vt -0.156684 -0.813368
vt -0.156684 0.500000
vt -0.156684 0.500000
vt -0.156684 1.813368
vt -0.156684 1.813368
vt -0.156684 0.500000
vt 1.156684 1.813368
vt 1.156684 1.813368
vt 1.156684 1.813368
vt 1.156684 1.813368
vt -0.156684 -2.126737
vt 1.156684 -2.126737
vt 1.156684 -0.813368
vt -0.156684 -0.813368
vt 2.470053 1.813368
vt 2.470053 0.500000
vt 2.470053 0.500000
vt 2.470053 1.813368
vt -1.470053 1.813368
vt -1.470053 0.500000
vt -0.156684 0.500000
vt -0.156684 1.813368
vt -0.156684 1.813368
vt 2.470053 0.500000
vt 2.470053 1.813368
vt -0.156684 -0.813368
vt 1.156684 -0.813368
vt -1.470053 0.500000
vt -1.470053 0.500000
vt 2.470053 0.500000
vt 2.470053 1.813368
vt 1.156684 -0.813368
vt -0.156684 -0.813368
vt -0.156684 -0.813368
vt 1.156684 -0.813368
vt 1.550409 0.919023
vt 0.237041 0.919023
vt 0.237041 0.919023
vt 1.550409 0.919023
vt 0.416990 0.542901
vt 0.416990 0.542901
vt 0.416990 0.542901
vt 0.416990 0.542901
vt 0.416990 0.542901
vt 0.416990 0.542901
vt 0.416990 0.542901
vt 0.416990 0.542901
vt -0.156684 -0.813368
vt 1.156684 -0.813368
vt 2.470053 0.500000
vt 2.470053 1.813368
vt -1.470053 0.500000
vt 1.156684 3.126737
vt -0.156684 1.813368
vt -0.156684 0.500000
vt -0.156684 1.813369
vt -0.156684 0.500000
vt 1.156684 1.813368
vt -0.156684 1.813368
vt -0.156684 0.500000
vt -0.156684 0.500000
vt -0.156684 1.813368
vt 1.156684 1.813368
vt -0.156684 1.813368
vt 1.156684 1.813369
vt 1.156684 1.813368
vt -0.156685 1.813368
vt -0.156684 0.500000
vt -0.156685 0.500000
vt -0.156685 0.500000
vt -0.156684 0.500000
vt -0.156685 1.813368
vt -0.156685 1.813368
vt 1.156684 1.813368
vt 1.156684 1.813369
vt -0.156685 1.813367
vt 1.156684 1.813368
vt 1.156684 1.813368
vt -0.156684 1.813368
vt -0.156684 0.500000
vt -0.156685 0.500000
vt -0.156684 0.500000
vt -0.156684 0.500000
vt -0.156685 1.813367
vt -0.156684 1.813368
vt 1.156684 1.813369
vt 1.156684 1.813369
vt -0.156684 0.500000
vt -0.156684 1.813368
vt -0.156684 1.813368
vt -0.156684 0.500000
vt 1.156684 1.813368
vt 1.156684 1.813369
vt 1.156684 1.813369
vt 1.156684 1.813369
vt -0.156684 1.813368
vt -0.156684 1.813368
vt -0.156684 0.500000
vt -0.156684 0.500000
vt -0.156684 0.500000
vt -0.156684 0.500000
vt -0.156685 1.813368
vt 1.156684 1.813368
vt -0.156684 1.813369
vt 1.156684 1.813369
vt 1.156684 1.813368
vt -0.156685 1.813368
vt -0.156684 0.500000
vt -0.156684 0.500000
vt 1.156684 1.813369
vt -0.156684 1.813368
vt -0.156684 0.500000
vt -0.156684 1.813368
vt 1.156684 1.813369
vt -0.156684 1.813368
vt 1.156684 1.813369
vt -0.156685 1.813367
vt 1.156684 1.813369
vt 1.156684 1.813368
vt -0.156684 1.813368
vt -0.156684 0.500000
vt -0.156684 0.500000
vt -0.156684 1.813368
vt -0.156684 0.500000
vt -0.156684 0.500000
vt -0.156684 0.500000
vt -0.156684 1.813369
vt 1.156684 1.813369
vt 1.156684 1.813368
vn 0.5774 0.5774 -0.5774
vn 1.0000 0.0000 0.0000
vn 0.5774 -0.5774 0.5774
vn 0.0000 -0.7071 0.7071
vn 0.0000 -0.7071 -0.7071
vn -0.7071 0.0000 -0.7071
vn 0.5774 -0.5774 -0.5774
vn -0.5774 0.5774 0.5774
vn -0.5774 0.5774 -0.5774
vn 0.0000 0.0000 1.0000
vn -0.5605 -0.5481 0.6208
vn 0.5467 0.5619 0.6208
vn -0.5774 -0.5774 -0.5774
vn -0.6408 -0.5089 0.5748
vn -0.6110 0.4938 0.6187
vn -0.7071 0.0000 0.7071
vn 0.0000 -1.0000 0.0000
vn -0.6178 0.0000 0.7863
vn 0.0000 1.0000 -0.0000
vn 0.6096 -0.4955 0.6188
vn -0.6308 0.5204 -0.5756
vn 0.6411 -0.5085 -0.5748
vn -1.0000 0.0000 -0.0000
vn -0.6408 -0.5089 -0.5748
vn 0.6305 0.5207 0.5756
vn 0.6305 0.5207 -0.5756
vn 0.6178 0.0000 0.7863
vn 0.6178 0.0000 -0.7863
vn 0.0000 0.0000 -1.0000
vn 0.0000 0.7071 -0.7071
vn 0.0000 0.7071 0.7071
vn 0.7071 0.0000 0.7071
vn 0.7071 0.0000 -0.7071
usemtl Material.001
s off
f 4/1/1 3/2/1 13/3/1 16/4/1
f 8/5/2 7/6/2 48/7/2 49/8/2
f 6/9/3 5/10/3 11/11/3 12/12/3
f 5/10/4 6/9/4 2/13/4 1/14/4
f 3/15/5 7/6/5 5/10/5 1/16/5
f 6/9/2 8/5/2 49/8/2 50/17/2
f 13/18/6 14/19/6 22/20/6 21/21/6
f 5/10/7 7/6/7 10/22/7 11/11/7
f 8/5/8 6/9/8 12/12/8 9/23/8
f 7/6/9 8/5/9 9/23/9 10/22/9
f 35/24/10 33/25/10 41/26/10 43/27/10
f 1/14/11 2/13/11 15/28/11 14/29/11
f 2/30/12 4/31/12 16/32/12 15/33/12
f 3/15/13 1/16/13 14/19/13 13/18/13
f 17/34/14 20/35/14 32/36/14 29/37/14
f 22/38/15 23/39/15 27/40/15 26/41/15
f 9/23/16 12/12/16 20/35/16 17/34/16
f 21/42/17 24/43/17 35/44/17 36/45/17
f 10/22/6 9/23/6 17/34/6 18/46/6
f 14/29/18 15/28/18 23/39/18 22/38/18
f 92/47/19 88/48/19 54/49/19 55/50/19
f 91/51/10 87/52/10 53/53/10 56/54/10
f 26/55/2 27/56/2 28/57/2 25/58/2
f 23/59/20 24/60/20 28/61/20 27/62/20
f 21/21/21 22/20/21 26/63/21 25/64/21
f 24/43/22 21/42/22 25/58/22 28/57/22
f 30/65/23 29/37/23 32/36/23 31/66/23
f 18/46/24 17/34/24 29/37/24 30/65/24
f 20/35/25 19/67/25 31/66/25 32/36/25
f 19/67/26 18/46/26 30/65/26 31/66/26
f 15/33/17 16/32/17 38/68/17 37/69/17
f 24/60/10 16/32/10 33/25/10 35/24/10
f 16/4/19 13/3/19 34/70/19 33/71/19
f 13/18/2 21/21/2 36/72/2 34/73/2
f 37/69/27 38/68/27 40/74/27 39/75/27
f 41/76/28 42/77/28 44/78/28 43/79/28
f 33/80/17 34/81/17 42/82/17 41/83/17
f 16/32/29 24/60/29 40/74/29 38/68/29
f 24/60/19 23/59/19 39/75/19 40/74/19
f 34/84/29 36/85/29 44/86/29 42/87/29
f 36/45/19 35/44/19 43/79/19 44/78/19
f 23/88/10 15/89/10 37/90/10 39/91/10
f 47/92/30 46/93/30 49/8/30 48/7/30
f 49/8/31 46/94/31 45/95/31 50/17/31
f 7/6/29 3/15/29 47/96/29 48/7/29
f 4/31/23 2/30/23 45/95/23 46/94/23
f 2/13/10 6/9/10 50/17/10 45/97/10
f 3/2/23 4/1/23 46/93/23 47/92/23
f 53/53/32 51/98/32 54/49/32 56/54/32
f 51/98/33 52/99/33 55/50/33 54/49/33
f 87/52/17 89/100/17 51/98/17 53/53/17
f 89/100/17 90/101/17 52/99/17 51/98/17
f 90/101/29 92/47/29 55/50/29 52/99/29
f 88/48/19 91/51/19 56/54/19 54/49/19
f 19/67/19 20/35/19 58/102/19 59/103/19
f 10/22/29 18/46/29 60/104/29 62/105/29
f 11/11/17 10/22/17 62/105/17 61/106/17
f 12/12/17 11/11/17 61/106/17 57/107/17
f 20/35/10 12/12/10 57/107/10 58/102/10
f 18/46/19 19/67/19 59/103/19 60/104/19
f 94/108/19 97/109/19 67/110/19 64/111/19
f 96/112/29 98/113/29 68/114/29 66/115/29
f 95/116/17 96/112/17 66/115/17 65/117/17
f 93/118/17 95/116/17 65/117/17 63/119/17
f 97/109/10 93/118/10 63/119/10 67/110/10
f 98/113/19 94/108/19 64/111/19 68/114/19
f 84/120/19 81/121/19 73/122/19 70/123/19
f 86/124/29 82/125/29 74/126/29 72/127/29
f 85/128/17 86/124/17 72/127/17 71/129/17
f 83/130/17 85/128/17 71/129/17 69/131/17
f 81/121/10 83/130/10 69/131/10 73/122/10
f 82/125/19 84/120/19 70/123/19 74/126/19
f 100/132/19 102/133/19 78/134/19 76/135/19
f 99/136/10 101/137/10 77/138/10 75/139/10
f 101/137/17 103/140/17 79/141/17 77/138/17
f 103/140/17 104/142/17 80/143/17 79/141/17
f 104/142/29 100/132/29 76/135/29 80/143/29
f 102/133/19 99/136/19 75/139/19 78/134/19
f 68/114/19 64/111/19 84/120/19 82/125/19
f 67/110/10 63/119/10 83/130/10 81/121/10
f 66/115/29 86/124/29 116/144/29 111/145/29
f 65/117/16 66/115/16 111/145/16 112/146/16
f 66/115/29 68/114/29 82/125/29 86/124/29
f 64/111/19 67/110/19 81/121/19 84/120/19
f 70/123/19 73/122/19 91/51/19 88/48/19
f 72/127/29 74/126/29 92/47/29 90/101/29
f 89/100/32 87/52/32 120/147/32 121/148/32
f 87/52/10 69/131/10 119/149/10 120/147/10
f 73/122/10 69/131/10 87/52/10 91/51/10
f 74/126/19 70/123/19 88/48/19 92/47/19
f 76/135/19 78/134/19 94/108/19 98/113/19
f 75/139/10 77/138/10 93/118/10 97/109/10
f 95/116/32 93/118/32 108/150/32 109/151/32
f 80/143/29 96/112/29 110/152/29 107/153/29
f 80/143/29 76/135/29 98/113/29 96/112/29
f 78/134/19 75/139/19 97/109/19 94/108/19
f 59/103/19 58/102/19 99/136/19 102/133/19
f 62/105/29 60/104/29 100/132/29 104/142/29
f 103/140/32 101/137/32 126/154/32 127/155/32
f 61/106/16 62/105/16 123/156/16 124/157/16
f 58/102/10 57/107/10 101/137/10 99/136/10
f 60/104/19 59/103/19 102/133/19 100/132/19
f 106/158/17 105/159/17 109/151/17 108/150/17
f 105/159/17 107/153/17 110/152/17 109/151/17
f 79/141/16 80/143/16 107/153/16 105/159/16
f 93/118/10 77/138/10 106/158/10 108/150/10
f 96/112/33 95/116/33 109/151/33 110/152/33
f 77/138/6 79/141/6 105/159/6 106/158/6
f 113/160/17 112/146/17 115/161/17 114/162/17
f 112/146/17 111/145/17 116/144/17 115/161/17
f 85/128/32 83/130/32 114/162/32 115/161/32
f 63/119/6 65/117/6 112/146/6 113/160/6
f 83/130/10 63/119/10 113/160/10 114/162/10
f 86/124/33 85/128/33 115/161/33 116/144/33
f 101/137/10 57/107/10 125/163/10 126/154/10
f 118/164/16 117/165/16 129/166/16 130/167/16
f 71/129/16 72/127/16 117/165/16 118/164/16
f 72/127/29 90/101/29 122/168/29 117/165/29
f 90/101/33 89/100/33 121/148/33 122/168/33
f 69/131/6 71/129/6 118/164/6 119/149/6
f 124/157/17 123/156/17 128/169/17 127/155/17
f 125/163/17 124/157/17 127/155/17 126/154/17
f 130/167/17 129/166/17 134/170/17 133/171/17
f 131/172/17 130/167/17 133/171/17 132/173/17
f 117/165/29 122/168/29 134/170/29 129/166/29
f 119/149/6 118/164/6 130/167/6 131/172/6
f 57/107/6 61/106/6 124/157/6 125/163/6
f 122/168/33 121/148/33 133/171/33 134/170/33
f 120/147/10 119/149/10 131/172/10 132/173/10
f 121/148/32 120/147/32 132/173/32 133/171/32
f 104/142/33 103/140/33 127/155/33 128/169/33
f 62/105/29 104/142/29 128/169/29 123/156/29
